<svg width="44" height="44" viewBox="0 0 44 44" fill="none" xmlns="http://www.w3.org/2000/svg">
<path d="M40.6425 5.67157C40.4064 5.47024 40.1206 5.33608 39.8149 5.28316C39.5092 5.23025 39.1949 5.26051 38.9049 5.37079L3.86355 18.7002C3.53475 18.8309 3.25367 19.0588 3.05788 19.3535C2.8621 19.6483 2.76094 19.9957 2.76792 20.3495C2.7749 20.7033 2.88969 21.0465 3.09694 21.3333C3.3042 21.62 3.59405 21.8367 3.92776 21.9544L11.4683 24.4868L15.5433 36.1528C15.6371 36.4214 15.7948 36.6632 16.0027 36.8573C16.2107 37.0514 16.4627 37.1921 16.7371 37.2672C17.0115 37.3423 17.3 37.3496 17.5778 37.2884C17.8556 37.2273 18.1144 37.0996 18.3319 36.9162L24.1471 32.0133L32.189 38.3688C32.4211 38.5486 32.6949 38.6667 32.9849 38.7121C33.2749 38.7576 33.5718 38.7289 33.8477 38.6287C34.1236 38.5285 34.3697 38.36 34.563 38.1391C34.7563 37.9181 34.8905 37.6518 34.9531 37.365L41.2118 7.33931C41.2751 7.03581 41.2557 6.72087 41.1555 6.42746C41.0554 6.13405 40.8782 5.87298 40.6425 5.67157ZM12.8491 24.2713L28.7663 15.7679C28.7663 15.7679 18.387 26.7816 18.353 26.884C18.3205 26.9105 16.5751 34.8497 16.5574 34.8876L12.8491 24.2713ZM17.8184 35.5506L19.4385 28.2923L23.046 31.1431L17.8184 35.5506ZM39.8663 7.05865L33.6077 37.0844C33.5954 37.1435 33.5682 37.1984 33.5287 37.244C33.4892 37.2896 33.4387 37.3244 33.382 37.3449C33.3252 37.3655 33.2642 37.3713 33.2047 37.3616C33.1451 37.352 33.089 37.3273 33.0417 37.2898L20.0221 27.0008L32.6764 13.6389C32.7886 13.5203 32.8549 13.3657 32.8635 13.2026C32.8721 13.0396 32.8224 12.8789 32.7233 12.7491C32.6243 12.6194 32.4823 12.5291 32.3228 12.4945C32.1632 12.4598 31.9966 12.483 31.8526 12.56L11.9437 23.1961L4.36541 20.6512C4.29629 20.628 4.23604 20.584 4.1929 20.5252C4.14975 20.4664 4.12583 20.3957 4.12439 20.3228C4.12296 20.2499 4.14409 20.1783 4.18489 20.1179C4.22569 20.0575 4.28416 20.0111 4.35232 19.9852L39.3937 6.65581C39.453 6.63326 39.5173 6.62708 39.5799 6.6379C39.6424 6.64872 39.7009 6.67616 39.7492 6.71733C39.7975 6.75851 39.8339 6.81191 39.8545 6.87196C39.8751 6.932 39.8792 6.99649 39.8663 7.05865Z" fill="black"/>
</svg>
