<svg width="44" height="26" viewBox="0 0 44 26" fill="none" xmlns="http://www.w3.org/2000/svg">
<path d="M41.2492 25.8633H35.749C34.903 25.8654 34.1033 25.4759 33.583 24.8089L28.2204 17.9681C27.9797 17.6606 27.5708 17.5391 27.2011 17.666C26.8319 17.7926 26.5831 18.139 26.5818 18.5294V21.2796C26.5818 23.8122 24.118 25.8633 21.0815 25.8633C19.8944 25.8741 18.7292 25.5441 17.7241 24.9123C10.0236 19.9847 4.79825 13.7627 0.260803 4.11442C-0.139027 3.26306 -0.0759133 2.26634 0.427986 1.47205C0.931886 0.677764 1.80674 0.196357 2.7474 0.19535H8.24766C9.34812 0.192664 10.3442 0.846291 10.7799 1.85678L11.3986 3.30066C12.3336 5.46968 13.5888 7.48628 15.123 9.28233C15.173 9.33604 15.2442 9.36559 15.3177 9.36256C15.3852 9.36894 15.4527 9.34645 15.5027 9.30046C15.553 9.2548 15.5816 9.18967 15.5812 9.12186V5.53514C14.323 5.08563 13.5703 3.79684 13.7963 2.48019C14.0222 1.16354 15.1619 0.199714 16.4981 0.19535H23.8316C25.3504 0.19535 26.5818 1.42673 26.5818 2.94548V9.36256C26.5824 9.77179 26.8544 10.131 27.2481 10.2428C27.6419 10.3546 28.0619 10.1918 28.2778 9.84364L33.3997 1.51301C33.8962 0.690857 34.7885 0.190315 35.749 0.19535H41.2492C42.2654 0.195686 43.1984 0.756656 43.6757 1.65367C44.1531 2.55069 44.0967 3.63805 43.5294 4.48102L37.7542 12.4907C37.5208 12.812 37.5208 13.2467 37.7542 13.568L43.4837 21.5089C44.0853 22.3468 44.1676 23.4509 43.6966 24.3688C43.2256 25.2866 42.2805 25.8633 41.2492 25.8633ZM27.4986 15.7793C28.3446 15.7776 29.1439 16.1667 29.6642 16.8338L35.0269 23.6745C35.2001 23.8978 35.4663 24.029 35.749 24.0297H41.2492C41.5943 24.031 41.9109 23.838 42.068 23.5308C42.2255 23.2233 42.1966 22.854 41.9938 22.5744L36.2646 14.6335C35.5704 13.6724 35.5704 12.3749 36.2646 11.4137L42.0284 3.42689C42.1191 3.28253 42.1667 3.11569 42.1657 2.94548C42.1657 2.43923 41.7555 2.02866 41.2492 2.02866H35.749C35.4311 2.02899 35.1363 2.19383 34.9698 2.46407L29.8475 10.7947C29.2063 11.8482 27.9421 12.346 26.7546 12.0123C25.5672 11.679 24.7474 10.5956 24.7484 9.36256V2.94548C24.7484 2.43923 24.3379 2.02866 23.8316 2.02866H16.4981C15.9915 2.02866 15.5812 2.43923 15.5812 2.94548C15.5812 3.45173 15.9915 3.8623 16.4981 3.8623H17.4145V9.12186C17.4041 9.99168 16.8579 10.7648 16.0412 11.0653C15.2247 11.3654 14.3076 11.1301 13.7362 10.4741C12.0848 8.54008 10.7326 6.36938 9.72579 4.03419L9.09533 2.5903C8.95198 2.24922 8.61761 2.02765 8.24766 2.02866H2.7474C2.43452 2.03034 2.14413 2.19148 1.97695 2.45602C1.80977 2.72056 1.78929 3.0519 1.92223 3.33524C6.35695 12.7656 11.2267 18.5754 18.7208 23.3767C19.4308 23.8115 20.2489 24.0381 21.0815 24.0297C23.0981 24.0297 24.7484 22.7923 24.7484 21.2796V18.5294C24.7484 17.0107 25.9795 15.7793 27.4986 15.7793Z" fill="black" fill-opacity="0.5"/>
</svg>
