<svg width="44" height="44" viewBox="0 0 44 44" fill="none" xmlns="http://www.w3.org/2000/svg">
<path d="M31.2652 25.3854C31.0473 25.2628 30.8004 25.1239 30.5029 24.9448C30.3369 24.8446 30.1281 24.7075 29.9069 24.5623C28.7715 23.8171 27.9112 23.2896 27.1788 23.2896C27.0073 23.2896 26.845 23.3186 26.6971 23.3757C26.0555 23.6228 25.5287 24.2829 25.0191 24.9211C24.8324 25.155 24.5651 25.4898 24.403 25.6394C23.7596 25.5224 22.4028 24.6819 20.9386 23.2177C19.4726 21.7518 18.6319 20.3933 18.5165 19.7516C18.6659 19.5888 19.0033 19.3195 19.2386 19.1316C19.8745 18.624 20.532 18.0991 20.7804 17.4594C21.0974 16.6376 20.5165 15.6547 19.594 14.2493C19.4488 14.0281 19.3117 13.8192 19.2122 13.6545C19.0325 13.3558 18.8936 13.1088 18.771 12.891C18.2681 11.9971 17.9357 11.4062 16.687 11.4062C15.8765 11.4062 14.7306 12.1721 13.9544 12.9316C12.8264 14.0357 12.2051 15.3103 12.2051 16.5232C12.2072 19.8176 14.0458 23.5933 17.2494 26.8861C17.2549 26.8916 17.2604 26.893 17.266 26.8985C20.5588 30.1022 24.3366 31.9345 27.6309 31.9345H27.6321C28.8434 31.9345 30.1185 31.3203 31.2224 30.1929C31.9826 29.4168 32.7495 28.2792 32.7495 27.4693C32.7496 26.2207 32.1591 25.8884 31.2652 25.3854ZM27.6312 30.2325C24.8252 30.2304 21.4022 28.5299 18.4731 25.6834C15.6263 22.754 13.9257 19.3307 13.9239 16.5249C13.9239 14.8278 16.1263 13.2141 16.7023 13.1257C16.8199 13.1262 16.8816 13.1332 16.911 13.1381C16.9872 13.2258 17.1385 13.4948 17.2732 13.7343C17.3952 13.951 17.547 14.2209 17.7404 14.5422C17.8573 14.7358 18.003 14.9578 18.1573 15.1927C18.4492 15.6376 19.0361 16.5316 19.135 16.9133C18.9696 17.1475 18.4563 17.5572 18.1665 17.7886C17.4248 18.3808 16.7842 18.8921 16.7842 19.6147C16.786 21.3603 19.0344 23.7442 19.7234 24.4333C20.4125 25.1223 22.7964 27.3707 24.5456 27.3724C25.2636 27.3701 25.7728 26.7322 26.3625 25.9935C26.5951 25.7023 27.0073 25.1859 27.2424 25.0213C27.6236 25.1196 28.5189 25.7071 28.964 25.9994C29.199 26.1536 29.4209 26.2992 29.6157 26.4169C29.9359 26.6095 30.2056 26.7614 30.4225 26.8833C30.6619 27.0181 30.9309 27.1695 31.0186 27.2457C31.0236 27.275 31.0305 27.3367 31.0311 27.4542C30.9419 28.0297 29.3278 30.2304 27.6312 30.2325Z" fill="black" fill-opacity="0.5"/>
<path d="M39.5642 22.0841C39.5039 17.44 37.6397 13.0515 34.3153 9.727C30.9296 6.34123 26.4604 4.47656 21.7309 4.47656C17.1655 4.47656 12.8945 6.2333 9.70472 9.42304C6.87411 12.2536 5.13748 16.0289 4.81444 20.0534C4.50808 23.8718 5.48011 27.7359 7.55576 30.9848L4.72137 38.6463C4.60243 38.9679 4.68597 39.3295 4.93407 39.5662C5.09709 39.7219 5.31065 39.8039 5.52755 39.8039C5.64065 39.8039 5.75477 39.7712 5.86297 39.7252L13.2449 36.5838C16.063 38.3378 19.2853 39.2418 22.5941 39.2418H22.5944C27.1591 39.2418 31.4299 37.506 34.6193 34.3166C37.8684 31.0674 39.6246 26.7366 39.5642 22.0841ZM33.4038 33.1222C30.5388 35.9872 26.6998 37.5649 22.594 37.5648C19.4682 37.5647 16.427 36.6498 13.7992 34.9189C13.6567 34.825 13.4921 34.7773 13.3265 34.7773C13.2128 34.7773 13.0986 34.7998 12.991 34.8455L7.02381 37.3764L9.31834 31.1742C9.41433 30.9145 9.37944 30.6246 9.22467 30.3952C5.0072 24.1471 5.72022 15.8382 10.92 10.6385C13.7852 7.7733 17.6245 6.19531 21.7309 6.19531C26.0012 6.19531 30.0388 7.88115 33.0999 10.9423C36.1057 13.9481 37.7911 17.9129 37.8456 22.1065C37.9 26.2915 36.3225 30.2036 33.4038 33.1222Z" fill="black" fill-opacity="0.5"/>
</svg>
